# xmcd
#
# Track frame offsets: 
#        150
#        15251
#        30665
#        44041
#        58299
#        72961
#        88920
#        112470
#        132772
#        149221
#        170217
#
# Disc length: 2505 seconds
#
# Revision: 3
# Processed by: cddbd v1.5.2PL0 Copyright (c) Steve Scherf et al.
# Submitted via: ExactAudioCopy v1.0b6
#
DISCID=b109c70b
DTITLE=Trace Adkins - Love Will...
DYEAR=2013
DGENRE=Country
TTITLE0=When I Stop Loving You
TTITLE1=So What If I Do
TTITLE2=Come See Me
TTITLE3=Right Now
TTITLE4=Every One Of You
TTITLE5=The Altar Of Your Love
TTITLE6=Kiss You All Over (feat. Exile)
TTITLE7=If The Sun Comes Up
TTITLE8=Say No To A Woman
TTITLE9=Watch The World End (feat. Colbie Caillat)
TTITLE10=Love Will
EXTD=YEAR: 2013
EXTT0=
EXTT1=
EXTT2=
EXTT3=
EXTT4=
EXTT5=
EXTT6=
EXTT7=
EXTT8=
EXTT9=
EXTT10=
PLAYORDER=
